<?xml version="1.0" encoding="UTF-8"?><svg id="Calque_2" xmlns="http://www.w3.org/2000/svg" viewBox="0 0 485.61 255.63"><g id="Calque_1-2"><path d="m69.57,43.74c-15.27,0-27.35,11.52-27.35,26.1,0,2.08.28,4.03.69,5.83H13.33c-3.61,0-6.53-2.92-6.53-6.66,0-1.81-1.53-3.33-3.47-3.33-1.8,0-3.33,1.53-3.33,3.33,0,14.02,10.55,43.6,23.6,43.6h53.88c13.47,0,22.49-19.3,22.49-36.93,0-15.14-11.11-31.94-30.41-31.94Zm-5.42,36.66c-5.42,0-9.72-4.3-9.72-9.72s4.3-9.58,9.72-9.58,9.58,4.3,9.58,9.58-4.3,9.72-9.58,9.72Z"/><path d="m66.09,33.46c4.3,0,7.78-3.47,7.78-7.64s-3.47-7.78-7.78-7.78-7.64,3.47-7.64,7.78,3.47,7.64,7.64,7.64Z"/><path d="m221.61,46.79c-1.94-1.53-3.89-1.81-5.42-1.53-1.53.14-2.92.97-3.89,1.67-1.67,1.67-4.86,4.44-4.72,7.91.14,3.75,1.53,4.72,4.3,9.86,1.94,3.33,2.92,7.08,2.92,11.11h-6.11c0-10.55-7.78-23.88-14.44-29.02-1.94-1.53-3.75-1.81-5.41-1.53-1.53.14-2.64.97-3.61,1.67-1.53,1.67-5,4.44-4.86,7.91.28,3.75,1.53,4.72,4.3,9.86,2.08,3.33,3.06,7.22,3.06,11.11h-6.11c0-11.94-9.03-24.85-14.58-29.02-1.94-1.53-3.61-1.81-5.42-1.53-1.53.14-2.64.97-3.61,1.67-1.67,1.67-5,4.44-4.86,7.91,0,3.75,1.53,4.72,4.3,9.86,1.94,3.33,3.19,7.08,3.61,11.11h-13.51l-.1-.14h-10c-2.22-18.47-12.08-26.66-14.44-28.47-2.78-2.08-5.42-3.19-9.16.42-1.67,1.39-4.72,4.03-4.72,7.5.14,2.64.69,3.89,2.08,6.25,3.89,6.53,12.36,16.11,12.36,27.21,0,17.5-12.64,31.66-21.94,34.3-2.64.56-3.33,1.94-3.05,3.75.28,1.67,1.8,2.78,3.47,2.64,16.94-2.08,28.33-14.3,33.19-29.44h4.03c-.42,3.47-.69,7.36-.83,8.61-.14,2.36.69,4.17,3.05,4.17h12.22c8.33,0,15-3.33,18.75-12.91h4.44c-.42,3.61-.97,7.08-.97,8.47-.28,2.08.69,4.44,3.19,4.44h2.78c7.91,0,14.72-3.33,18.61-12.91h4.3c-.42,3.61-.7,7.08-.83,8.47-.28,2.08.83,4.44,2.92,4.44h5.28c12.91,0,21.38-28.47,21.38-39.99s-6.94-22.08-11.94-25.83Z"/><path d="m193.7,25.69c0,4.3,3.33,7.64,7.64,7.64s7.78-3.33,7.78-7.64-3.61-7.64-7.78-7.64-7.64,3.47-7.64,7.64Z"/><path d="m191.34,15.27c4.17,0,7.5-3.75,7.5-7.64,0-4.3-3.33-7.64-7.5-7.64s-7.64,3.33-7.64,7.64c0,3.89,3.33,7.64,7.64,7.64Z"/><path d="m181.48,33.32c3.89,0,7.36-3.33,7.36-7.64s-3.47-7.64-7.36-7.64c-4.3,0-7.78,3.47-7.78,7.64s3.47,7.64,7.78,7.64Z"/><path d="m252.3,15.41c-3.19,0-5.42,1.94-7.22,3.89-1.67,1.67-3.19,3.89-3.19,6.66,0,3.61,2.5,8.47,2.5,13.61v70.82c0,2.22,1.94,2.22,2.08,2.22,5.97,0,13.75-18.47,13.75-34.71V23.05c0-4.3-3.47-7.64-7.91-7.64Z"/><path d="m30.55,162.04c-16.94,0-30.55,13.61-30.55,30.55,0,45.82,26.52,54.29,35.13,54.99,1.67.14,3.19-.97,3.47-2.64.42-1.67-.42-3.19-3.05-3.89-9.03-2.36-22.08-16.66-22.08-34.02h3.19c0,10.69,9.86,25.41,21.66,25.41,5.55,0,10.41-1.8,14.44-7.36,4.86-7.08,8.33-17.91,8.33-33.88s-14.16-29.16-30.55-29.16Zm1.25,36.38c-5.28,0-9.72-4.3-9.72-9.72s4.44-9.58,9.72-9.58,9.72,4.3,9.72,9.58-4.44,9.72-9.72,9.72Z"/><path d="m253.13,132.88c-3.19,0-5.69,2.22-7.5,4.17-1.67,1.67-3.19,3.89-3.19,6.66,0,3.61,2.5,8.33,2.5,13.61v36.52h-7.36s0,0,0,0h-7.22c.14-.97.14-1.94.14-3.06,0-11.52-6.66-22.22-11.8-26.1-2.08-1.53-3.89-1.81-5.42-1.53-1.53.14-2.78.97-3.61,1.81-1.8,1.39-5,4.58-4.86,7.91.28,3.47,1.39,4.44,4.3,9.86,1.8,3.33,2.92,6.94,2.92,11.11h-6.11c0-10.28-7.78-23.74-14.44-29.16-1.94-1.53-3.89-1.81-5.28-1.53-1.67.14-2.92.97-3.75,1.81-1.8,1.39-5.14,4.58-4.86,7.91.14,3.47,1.25,4.44,4.17,9.86,2.08,3.33,3.05,7.22,3.05,11.11h-6.25c0-11.8-8.75-24.86-14.3-29.16-2.22-1.53-4.17-1.81-5.69-1.53-1.53.14-2.64.97-3.47,1.81-1.67,1.39-5.14,4.58-5,7.91.28,3.47,1.67,4.44,4.44,9.86,1.67,3.33,3.05,6.94,3.47,11.11h-13.19s0,0,0,0h-11.8v-52.63c0-4.17-3.33-7.64-7.78-7.64-3.19,0-5.42,1.94-7.36,3.89-1.67,1.81-3.06,4.03-3.06,6.66,0,3.61,2.36,8.47,2.36,13.61v29.85c-2.22-10.55-6.53-19.58-10.97-24.85-10.14-12.36-22.22-17.63-29.16-17.63-1.25,0-3.05.56-3.47,2.22-.56,1.67.56,3.19,2.08,4.03,8.61,4.58,14.72,10.83,19.16,19.44,3.61,6.94,5.97,15.27,7.22,23.05h-28.19c-1.67,0-3.05,1.39-3.05,3.05,0,10.41,5.28,33.88,11.94,33.88h31.52c8.19,0,14.86-3.19,18.75-12.91h4.17c-.28,3.61-.69,7.08-.83,8.47-.28,2.22.83,4.44,3.05,4.44h5.42s0,0,0,0h6.94c8.19,0,14.86-3.33,18.61-13.05h4.44c-.28,3.47-.97,7.22-1.11,8.61-.14,2.36.97,4.44,3.19,4.44h1.67c8.33,0,15-3.33,18.74-13.05h4.44c-.28,3.47-.69,7.22-.83,8.61-.28,2.36.83,4.44,3.19,4.44,3.89,0,7.64-.83,10.69-2.78,2.92-1.94,5.69-5.28,7.5-10.27h4.17c-.14,3.47-.56,7.22-.69,8.61-.28,2.36.69,4.44,3.06,4.44h8.75s0,0,0,0h7.64c8.75,0,15.69-26.24,15.69-34.85v-55.13c0-4.3-3.33-7.91-7.78-7.91Z"/><path d="m279.65,133.58c-3.19,0-5.42,1.94-7.22,3.89-1.67,1.67-3.19,3.89-3.19,6.66,0,3.61,2.5,8.47,2.5,13.61v70.82c0,2.22,1.94,2.22,2.08,2.22,5.97,0,13.75-18.47,13.75-34.71v-54.85c0-4.3-3.47-7.64-7.91-7.64Z"/><circle cx="391.85" cy="247.99" r="7.64"/><path d="m483.07,193.84h-37.35v-7.36c0-5.42,4.3-9.86,9.72-9.86,4.44-.14,7.64,1.67,9.72,3.33,1.94,1.53,4.58,1.39,6.39-.42l6.25-6.25c1.11-1.11.97-2.92-.14-4.03-4.3-3.47-10-7.5-20.41-7.5-10.97,0-23.19,7.36-23.19,22.22v9.86h-17.91c.28-2.08.42-3.89.42-5.42,0-9.3-3.33-15.83-9.16-22.08-3.61-3.89-9.72-4.03-13.47-.28l-3.19,3.19c-2.92,2.92-3.06,7.64-.42,10.69,2.08,2.5,5.97,6.8,9.16,10.41,1.25,1.39.28,3.47-1.53,3.47h-15.83s0,0,0,0h-9.44c0-10.14-6.25-19.02-14.58-25.27-10.28-7.78-26.38-8.89-33.05-5.83-1.25.55-1.67,1.8-1.53,3.19.14,1.53,1.67,2.64,3.05,2.64,9.16,0,15.83,4.44,19.99,9.03,5,5.42,6.8,13.05,6.8,16.25h-30.83c-1.67,0-3.06,1.11-3.06,2.92v22.36c0,6.66,5.28,11.66,11.66,11.66h19.72c8.19,0,15-3.33,18.61-13.05h4.3c-.28,3.61-.69,7.22-.83,8.61-.28,2.36.83,4.44,3.19,4.44h5.97s0,0,0,0h11.39c8.19,0,14.86-3.19,18.61-12.91h4.3c-.42,3.61-.69,7.08-.83,8.47-.28,2.22.7,4.44,3.06,4.44h49.57c8.75,0,15.97-25.55,17.36-34.02.28-1.53-.97-2.92-2.5-2.92Z"/></g></svg>